<?xml version="1.0" encoding="utf-8"?>
<!-- Generator: Adobe Illustrator 22.0.1, SVG Export Plug-In . SVG Version: 6.00 Build 0)  -->
<svg version="1.1" id="圖層_1" xmlns="http://www.w3.org/2000/svg" xmlns:xlink="http://www.w3.org/1999/xlink" x="0px" y="0px"
	 viewBox="0 0 24.8 20.5" style="enable-background:new 0 0 24.8 20.5;" xml:space="preserve">
<style type="text/css">
	.st0{fill:#D2D1CC;}
</style>
<path class="st0" d="M17.8,14.5c0.1-1.7-1-3.2-1-4s0.9-2.1,0.9-3.5c0-1.8-1-3.4-2.6-4.4c-3.2-1.9-8-0.5-10.6,1.3
	c-1.3,0.9-2.7,2-2.7,3.4c0,1.3,0.9,1.8,0.9,3.5c0,1.6-0.9,2.1-0.8,3.5c0,1.4,1.3,2.3,2.6,3.2c1.5,1,2.9,1.4,3,1.5
	c0,0,1.1-2.8,4.3-2.8c2.7,0,4,2.2,4,2.3C17.6,17.1,17.8,15.2,17.8,14.5 M19.5,13.4c0.9,0.7,2.1,1.2,3.4,1.1c0-1.1-0.7-2.3-1.6-3.1
	c-0.8-0.7-2.1-1.3-3.3-1.1C18,11.5,18.6,12.7,19.5,13.4"/>
</svg>
