<?xml version="1.0" encoding="utf-8"?>
<!-- Generator: Adobe Illustrator 22.0.1, SVG Export Plug-In . SVG Version: 6.00 Build 0)  -->
<svg version="1.1" id="圖層_1" xmlns="http://www.w3.org/2000/svg" xmlns:xlink="http://www.w3.org/1999/xlink" x="0px" y="0px"
	 viewBox="0 0 53 43" style="enable-background:new 0 0 53 43;" xml:space="preserve">
<style type="text/css">
	.st0{fill:none;}
	.st1{fill:#BBBAB3;}
</style>
<g id="Assets_Small">
	<g id="iPhone_2_">
		<rect y="0" class="st0" width="53" height="43"/>
		<path class="st1" d="M1.5,15.2c0-0.6,0.5-1,1-1s1,0.4,1,1s-0.5,1-1,1S1.5,15.8,1.5,15.2z M1.8,18h1.4v9H1.8V18z M10.3,15
			c2.3,0,3.8,1.6,3.8,3.9c0,2.2-1.6,3.8-3.8,3.8h-3V27H5.8V15H10.3z M7.3,21.4h2.6c1.7,0,2.7-0.9,2.7-2.5c0-1.6-0.9-2.5-2.7-2.5H7.3
			V21.4z M16.1,14.5h1.4v5h0.1c0.5-1,1.4-1.6,2.8-1.6c1.9,0,3.1,1.2,3.1,3.3V27h-1.4v-5.5c0-1.6-0.7-2.4-2.1-2.4
			c-1.6,0-2.5,1-2.5,2.5V27h-1.4L16.1,14.5L16.1,14.5z M25.3,22.5c0-2.9,1.6-4.6,4.1-4.6s4.1,1.8,4.1,4.6c0,2.9-1.6,4.6-4.1,4.6
			S25.3,25.4,25.3,22.5z M32.1,22.5c0-2.1-1-3.3-2.6-3.3s-2.6,1.2-2.6,3.3s1,3.4,2.6,3.4S32.1,24.6,32.1,22.5z M35.5,18h1.4v1.4H37
			c0.5-1,1.3-1.6,2.7-1.6c2,0,3.1,1.2,3.1,3.3V27h-1.4v-5.5c0-1.6-0.7-2.4-2.1-2.4s-2.3,1-2.3,2.5V27h-1.4L35.5,18L35.5,18z
			 M52.6,24.6c-0.4,1.5-1.9,2.5-3.9,2.5c-2.5,0-4-1.8-4-4.6c0-2.8,1.6-4.6,4-4.6c2.4,0,3.8,1.7,3.8,4.5v0.5h-6.4V23
			c0.1,1.8,1.1,2.9,2.6,2.9c1.2,0,2-0.5,2.4-1.3L52.6,24.6L52.6,24.6z M46.2,21.8h4.9c0-1.6-1-2.6-2.4-2.6
			C47.3,19.2,46.3,20.2,46.2,21.8z"/>
	</g>
</g>
<g id="Assets_Large">
</g>
</svg>
